<svg width="36" height="36" viewBox="0 0 36 36" fill="none" xmlns="http://www.w3.org/2000/svg">
<g id="Subtract" filter="url(#filter0_d_793_328)">
<path fill-rule="evenodd" clip-rule="evenodd" d="M18 1C20.8052 1 23.4418 1.72192 25.7342 2.99011L23.0519 5.67239C21.5089 4.98318 19.7992 4.6 18 4.6C11.1517 4.6 5.6 10.1517 5.6 17C5.6 18.7992 5.98318 20.5089 6.67239 22.0519L3.99011 24.7342C2.72192 22.4418 2 19.8052 2 17C2 8.16344 9.16344 1 18 1ZM18 6.99399C19.1212 6.99399 20.1994 7.1784 21.2057 7.51854L18.129 10.5953C18.0861 10.5944 18.0431 10.594 18 10.594C14.4621 10.594 11.594 13.4621 11.594 17C11.594 17.0431 11.5944 17.0861 11.5953 17.129L8.51854 20.2057C8.1784 19.1993 7.99399 18.1212 7.99399 17C7.99399 11.4738 12.4738 6.99399 18 6.99399ZM24.1462 9.10357L21.5698 11.68C22.3203 12.1846 22.9583 12.8439 23.4379 13.6122L26.0262 11.024C25.4883 10.3027 24.8554 9.6564 24.1462 9.10357ZM27.555 14.0207L24.4038 17.1719C24.3142 20.5733 21.5733 23.3142 18.1719 23.4038L15.0207 26.555C15.9617 26.8481 16.9624 27.006 18 27.006C23.5262 27.006 28.006 22.5262 28.006 17C28.006 15.9624 27.8481 14.9617 27.555 14.0207ZM13.157 28.4186C14.6449 29.0505 16.2816 29.4 18 29.4C24.8483 29.4 30.4 23.8483 30.4 17C30.4 15.2816 30.0505 13.6449 29.4186 12.157L32.1156 9.46004C33.3181 11.7066 34 14.2737 34 17C34 25.8366 26.8366 33 18 33C15.2737 33 12.7066 32.3181 10.46 31.1156L13.157 28.4186ZM12.024 25.0262L14.6122 22.4379C13.8439 21.9583 13.1846 21.3203 12.68 20.5698L10.1036 23.1462C10.6564 23.8554 11.3027 24.4883 12.024 25.0262ZM10.3167 26.7334L7.75761 29.2925C7.06855 28.7178 6.42857 28.0862 5.84486 27.4049L8.40028 24.8495C8.96913 25.5444 9.61195 26.1764 10.3167 26.7334ZM30.2925 6.75761L27.7334 9.31671C27.1764 8.61195 26.5444 7.96913 25.8495 7.40028L28.4049 4.84486C29.0862 5.42857 29.7178 6.06855 30.2925 6.75761Z" fill="#FF0420"/>
</g>
<defs>
<filter id="filter0_d_793_328" x="0.4" y="0.04" width="35.2" height="35.2" filterUnits="userSpaceOnUse" color-interpolation-filters="sRGB">
<feFlood flood-opacity="0" result="BackgroundImageFix"/>
<feColorMatrix in="SourceAlpha" type="matrix" values="0 0 0 0 0 0 0 0 0 0 0 0 0 0 0 0 0 0 127 0" result="hardAlpha"/>
<feOffset dy="0.64"/>
<feGaussianBlur stdDeviation="0.8"/>
<feComposite in2="hardAlpha" operator="out"/>
<feColorMatrix type="matrix" values="0 0 0 0 0 0 0 0 0 0 0 0 0 0 0 0 0 0 0.1 0"/>
<feBlend mode="normal" in2="BackgroundImageFix" result="effect1_dropShadow_793_328"/>
<feBlend mode="normal" in="SourceGraphic" in2="effect1_dropShadow_793_328" result="shape"/>
</filter>
</defs>
</svg>
