<svg width="24" height="25" viewBox="0 0 24 25" fill="none" xmlns="http://www.w3.org/2000/svg">
<rect x="0.25" y="0.75" width="23.5" height="23.5" rx="11.75" fill="#FF0420"/>
<rect x="0.25" y="0.75" width="23.5" height="23.5" rx="11.75" stroke="#D9031B" stroke-width="0.5"/>
<path fill-rule="evenodd" clip-rule="evenodd" d="M12 3.5C13.578 3.5 15.0611 3.90611 16.3506 4.61951L14.671 6.29908C13.8519 5.94576 12.9488 5.75 12 5.75C8.27208 5.75 5.25 8.77208 5.25 12.5C5.25 13.4488 5.44576 14.3519 5.79908 15.171L4.11951 16.8506C3.40611 15.5611 3 14.078 3 12.5C3 7.52944 7.02944 3.5 12 3.5ZM16.2555 7.26017L17.8529 5.66283C18.2354 5.99056 18.59 6.34982 18.9128 6.73659L17.3132 8.33625C17.0017 7.9394 16.6468 7.57831 16.2555 7.26017ZM16.6738 8.9756C16.3695 8.57263 16.0142 8.21027 15.6176 7.89807L14.0081 9.50759C14.4295 9.79093 14.7878 10.1609 15.0574 10.592L16.6738 8.9756ZM15.6022 12.5928L17.5525 10.6425C17.7477 11.2261 17.8534 11.8507 17.8534 12.5C17.8534 15.7327 15.2327 18.3534 12 18.3534C11.3507 18.3534 10.7261 18.2477 10.1425 18.0525L12.0928 16.1022C14.0092 16.0538 15.5538 14.5092 15.6022 12.5928ZM10.092 15.5574C9.66092 15.2878 9.29093 14.9295 9.00759 14.5081L7.39807 16.1176C7.71027 16.5142 8.07263 16.8695 8.4756 17.1738L10.092 15.5574ZM7.83625 17.8132C7.4394 17.5017 7.07831 17.1468 6.76017 16.7555L5.16283 18.3529C5.49056 18.7354 5.84982 19.09 6.23659 19.4128L7.83625 17.8132ZM7.75631 20.4387C9.02058 21.1159 10.4654 21.5 12 21.5C16.9706 21.5 21 17.4706 21 12.5C21 10.9654 20.6159 9.52058 19.9387 8.25631L18.2498 9.94523C18.5722 10.7333 18.75 11.5959 18.75 12.5C18.75 16.2279 15.7279 19.25 12 19.25C11.0959 19.25 10.2333 19.0722 9.44523 18.7498L7.75631 20.4387ZM12 8.89662C12.0243 8.89662 12.0486 8.89686 12.0728 8.89734L13.9801 6.99001C13.3617 6.76773 12.695 6.64662 12 6.64662C8.76727 6.64662 6.14662 9.26727 6.14662 12.5C6.14662 13.195 6.26773 13.8617 6.49001 14.4801L8.39734 12.5728C8.39686 12.5486 8.39662 12.5243 8.39662 12.5C8.39662 10.5099 10.0099 8.89662 12 8.89662Z" fill="#F5F5F5"/>
</svg>
